<svg xmlns="http://www.w3.org/2000/svg" viewBox="0 0 98.9 103" width="98.9" height="103" role="img"><title>cat</title><g data-role="accent"><path d="M12.5 80.9C11.6 82.8 11.6 82.8 9.4 85C9.1 85 8.7 85.1 8.4 85.2C8.4 84.1 8.4 83.1 8.5 82C10.1 80.7 10.1 80.7 12.5 80.9Z" fill="#FEE951"/><path d="M6.4 83.3C6.7 83.3 7.1 83.3 7.4 83.2C7.6 84 7.7 84.7 7.9 85.4C8.4 87.1 9.4 88.6 10.4 90.1C11.3 91.8 12.5 93.2 13.9 94.7C15.2 96.3 16.8 97.8 18.6 99C18.6 99.4 18.6 99.8 18.6 100.1C15.9 99.6 14 98.9 12.4 97.7C10.7 96.4 9.6 94.7 8.4 92.6C7.5 91 6.6 89.7 6.1 88.4C5.7 87.1 5.6 85.8 5.8 83.9C6 83.7 6.2 83.5 6.4 83.3Z" fill="#FEE951"/><path d="M12.6 82.9C13.2 83.1 13.9 83.4 14.6 83.6C13.7 85.9 13.7 85.9 11.7 88.9C11.2 88.7 10.6 88.6 10 88.5C9.8 87.8 9.6 87.1 9.4 86.5C11 84.5 11 84.5 12.6 82.9Z" fill="#FEE951"/><path d="M16.1 83.5C16.8 83.5 17.5 83.4 18.2 83.4C18 85.2 17.3 86.7 16.4 88C15.5 89.1 14.6 90 13.3 91.5C12.9 91.6 12.5 91.6 12.1 91.6C12 90.9 11.8 90.2 11.7 89.4C12.6 88.2 13.6 87 14.7 85.9C15.2 85.1 15.7 84.3 16.1 83.5Z" fill="#FEE951"/><path d="M19.2 83.9C19.7 84.1 20.2 84.3 20.7 84.5C20.4 86.4 20 87.9 19.4 89.1C18.9 90.2 18.2 91.1 17.3 92.5C16.8 92.9 16.3 93.4 15.8 93.8C15.2 93.6 14.5 93.4 13.8 93.2C14.4 91.5 14.4 91.5 16.6 89.1C17.6 87.4 18.5 85.5 19.2 83.9Z" fill="#FEE951"/><path d="M3.8 86.1C4.9 87 4.9 87 5.8 89.7C6.9 91.7 8 93.6 9.1 95.4C10.3 97.2 12 98.7 14.3 99.9C14.2 100.3 14.2 100.6 14.2 100.9C11.9 100.5 10.2 99.8 9 98.9C7.8 97.8 6.8 96.3 5.6 94.5C4.1 92.2 3.2 90.2 2.6 87.6C3 87.1 3.4 86.6 3.8 86.1Z" fill="#FEE951"/><path d="M21.5 91.7C21.4 92.6 21.4 93.5 21.3 94.6C20.4 93.9 19.6 93.2 18.7 92.5C18.7 92.2 18.6 91.8 18.6 91.5C19.5 91.1 19.5 91.1 21.5 91.7Z" fill="#FEE951"/><path d="M16.8 93.8C19.4 94.5 19.4 94.5 21 96C20.9 96.6 20.9 97.3 20.8 97.8C18 97.2 18 97.2 16.3 95.9C16.5 95.2 16.7 94.5 16.8 93.8Z" fill="#FEE951"/><path d="M3.8 95.8C5.8 96.5 5.8 96.5 6.7 98.2C6.1 98.2 5.5 98.1 4.9 98.1C4.5 97.3 4.2 96.6 3.8 95.8Z" fill="#FEE951"/></g><g data-role="ink"><path d="M93.9 0.7C95.6 1.6 96.8 2.4 97.6 3.3C98.3 4.3 98.6 5.6 98.7 7.5C98.4 12 98.4 12 96.9 15.4C94.9 16.4 94.9 16.4 92 15.6C91.8 15.4 91.8 15.4 91 14.4C91 12.3 91.2 10.4 91.3 8.8C91.1 8.7 91.1 8.7 90.2 7.9C85.7 7.6 85.7 7.6 84.1 7.9C83.5 9.5 83.2 10.9 83.1 12.3C83.1 13.7 83.5 15.2 84.7 17.1C85.9 18.4 87.1 19.5 88.4 20.5C89.6 21.6 90.7 22.8 92 24.1C94.2 25.9 95.9 27.9 96.9 29.5C97.7 31 98.4 33.1 98.9 35.7C98.8 37.9 98.5 39.6 97.8 41.5C97.1 43.4 96.2 45.1 95.2 47C94.4 47.9 93.5 48.9 92.6 49.9C92.6 52.8 92.6 52.8 92.9 56.1C92.8 59 92.3 61.3 91.7 63.1C91 65.1 90.2 67.2 89.3 70.3C89.2 72.1 89.5 73.5 90 74.8C90.3 76.4 90.6 78 91.2 79.7C91.9 82.5 91.8 85.1 91.5 87.6C90.9 90.3 89.9 92.9 88.9 95.8C86.6 98.9 86.6 98.9 83.5 99.7C79.8 99.2 79.8 99.2 77.7 97.7C77.9 94.7 77.9 94.7 80.2 92.7C80.6 92.5 80.9 92.3 81.3 92.1C81.3 89 81.4 87.5 81 86.4C80.6 85.3 80 84.6 78.9 83.2C78.8 83.8 78.6 84.4 78.5 85.1C78.3 85.9 78.2 86.8 78.1 87.7C78 88.6 77.8 89.4 77.7 90.3C76.8 92.4 76.8 92.4 73.7 95.6C71.7 96.1 71.7 96.1 67.9 95.7C67.5 95.5 67.5 95.5 65.6 94.6C65.4 94 65.4 94 65 90.8C67.4 88.7 67.4 88.7 68.5 88.3C69.1 85.1 69.3 83.5 69.3 82.5C69.3 81.4 69.1 80.8 68.9 79.6C67.8 79.7 66.9 79.6 65.9 79.5C65.3 79.5 65.3 79.5 61.7 79.5C60.9 79.5 60.9 79.5 57.3 79.5C53.9 79.4 53.9 79.4 51.6 79.2C51.6 80.2 51.4 81.1 51.2 82.2C50.9 83.5 50.7 84.8 50.6 86.1C50.5 87.3 50.5 88.4 50.3 89.7C50 91.9 49.9 93.7 49.5 95.3C49 97 48.1 98.4 46.5 99.7C45.2 100.4 45.2 100.4 41.2 100.5C40.2 100 39.2 99.4 38 98.9C38 95.1 38 95.1 40.4 93.1C40.6 91.1 40.8 89.1 40.7 87.1C40.6 85.2 40.4 83.3 40.1 81.5C39.9 79.6 39.3 77.9 38.7 76.2C36.4 73.8 36.4 73.8 33.3 72.8C31.2 73 29.1 73.2 27 73.7C25.1 74.2 23.5 74.8 21.7 75.6C20.7 78.8 20.5 80.5 21.2 83.2C21.9 84.1 22.5 85.1 23.2 86.1C23.8 88.2 24 90 23.8 91.7C23.7 93.5 23.3 95.6 22.8 97.9C24.3 97.7 25.8 97.4 27.3 97.2C27.7 97.6 27.7 97.6 29.8 99.6C32.4 99.5 32.4 99.5 34.9 99.4C34.9 99.9 34.9 100.5 34.9 101C31.3 102.2 31.3 102.2 28.9 101.5C28.3 101 27.7 100.4 27 99.7C24.9 100 23.4 100.3 21.8 100.7C20 101.3 18.3 102 16 102.6C13.7 103 11.9 103 10.3 102.8C8.8 102.5 7.3 102.2 5.7 101.5C4.6 100.1 3.9 99 3.1 97.9C2.2 96.9 1.4 95.9 0.4 94.3C0 92.3 0.1 90.7 0.4 89C0.8 87.3 1.5 85.7 3 83.7C4.4 82.4 5.4 81.7 6.4 81.2C7.4 80.5 8.5 79.9 10.1 79.3C10.9 79.3 11.7 79.3 12.6 79.3C12.6 78.5 12.6 77.5 12.7 76.5C12.9 73.9 13.4 72 14.4 70.1C15.4 68.4 16.6 67.4 18.3 66.2C20.3 65.4 22.3 64.5 24.6 64C24.4 63.3 24.3 62.7 24.2 62.1C23.7 60 23.7 60 23.7 57.7C23.2 57.7 22.6 57.8 22 57.7C19.8 57 17.7 55.7 15.5 53.9C13.4 52.5 11.8 51 9.8 49.6C8.5 48.1 7.7 46.6 7.1 44.9C6.2 43.1 5.6 41.4 5.4 39.4C5.5 37.2 5.7 35.1 5.5 33.1C6.1 29.9 6.6 28.1 7 26.9C7.5 25.9 7.9 25.3 8.7 24.1C8.9 22.8 8.8 21.4 8.7 20.1C8.7 18.9 8.7 17.9 8.7 16.9C8.7 16.3 8.7 15.6 8.9 14.9C9.2 13 9.2 11 9 8.8C10 8.7 10.9 8.5 11.7 8.3C13.9 10 16.2 11.5 17.8 12.7C18.7 13.2 19.7 13.9 20.8 14.9C22.2 14.7 23.5 14.5 24.7 14.3C28.4 14.4 30.2 14.5 31.5 14.8C32.8 15.2 33.6 15.6 35.5 16.1C38.3 15.9 40.3 15.2 41.8 14.2C43.5 13.3 45.3 11.8 47.1 10.2C47.9 9.6 48.5 9 49.2 8.5C49.4 8.6 49.4 8.6 50.5 9C50.5 10.1 50.6 11.2 50.6 12.5C50.9 14.2 51 15.9 51.1 17.4C51.1 18.1 51.1 18.8 51.1 19.6C50.9 22.3 51 24.5 51.4 26.6C51.7 28.6 52.3 30.8 53 33C53.1 34.1 53.1 35.3 53.1 36.5C54.3 36.3 55.5 36 56.7 35.8C59.1 35.3 61.4 35 63.6 35C65.8 34.8 67.9 34.7 69.9 34.9C72 35.2 74 35.4 76.1 35.9C78.2 36.8 80.3 37.7 82.1 38.8C83.8 40.4 85.6 41.7 87.4 43.2C88 43.2 88.5 43.2 89.1 43.3C90.8 40.3 90.8 40.3 90.8 35.9C90 34.1 89 32.6 88 31.4C87 29.9 85.9 28.5 84.6 27C82.7 25.5 81.2 23.9 79.7 22.1C77.8 20.5 76.3 18.6 75 15.7C74.8 13.3 75 11.4 75.2 9.6C75.2 8 75.8 6.2 77.1 4.1C78.6 2.7 80.5 1.7 82.5 1C84.4 0.3 86.2 0 88.2 0.2C90 0.1 91.6 0.1 93.9 0.7ZM82.4 2.9C80.4 4 79.2 4.8 78.3 5.9C77.5 7.1 77 8.4 76.8 10.2C76.7 12.4 76.7 14.2 77.4 16C78.2 17.8 79.3 19.4 81 21.3C83.6 24.2 83.6 24.2 86.5 26.3C88.1 28.1 89.5 29.4 90.6 31C91.7 32.5 92.6 34.3 93.2 36.6C93.1 38.3 92.8 39.8 92.3 41.1C91.9 42.3 91.2 43.5 90.3 44.8C90.1 44.9 90.1 44.9 89.2 45.4C89.5 46.2 89.9 47.1 90.2 47.9C92.5 47.2 92.5 47.2 94.9 44C95.8 41.6 96.3 39.7 96.7 38C97.1 36.4 97 34.7 96.3 32.5C95.4 30.5 94 28.7 92.3 26.7C90.6 25 89.1 23.2 87.1 21.7C85.3 20.5 83.9 19.2 82.7 17.6C81.5 16 80.8 14.2 80.7 11.7C81.1 9.3 81.7 8.1 83.6 6.4C86 5.7 86 5.7 90.5 5.9C92.6 6.9 92.6 6.9 93.4 8.8C93.1 10.2 92.8 11.7 92.5 13.3C93.2 13.6 94 13.9 94.7 14.2C96.2 12.8 96.2 12.8 96.7 10C97.2 6.9 97.2 6.9 95.5 3.9C93.4 2.8 91.4 2.2 89.6 2.2C87.5 2 85.3 2.2 82.4 2.9ZM11.6 11.5C10.4 13.7 10.6 16.3 10.6 17.9C10.6 19.7 10.8 21.6 10.5 23.6C9.9 25.7 9.2 27.7 8 30.1C7.3 32.4 7.5 34.3 7.5 36.6C7.3 39.3 7.8 41.7 8.8 43.8C9.9 45.7 10.7 47.3 11.9 48.5C13.1 49.7 14.2 50.8 15.6 51.9C17.1 53.2 18.8 54.4 20.6 55.5C23 56.1 25.5 56.1 28.5 56.1C31.6 56.3 34.2 55.7 36.5 54.8C38.5 54.1 40.6 52.9 43 51.2C44.6 49.6 45.8 48.2 47 46.4C48.8 44.5 50 42.3 50.5 39.8C51 36.1 51.1 34.4 50.9 33.3C50.8 32.2 50.6 31.6 50 30.2C49.4 28.5 49.4 26.9 49.4 25.3C49.3 23.5 49.5 21.6 49.6 19.6C49.5 18.8 49.5 18 49.4 17.2C49.3 15.2 49.4 13.1 49.4 11.1C48.4 11.9 47.3 12.7 46 13.5C44.7 14.3 43.5 15.1 42.3 16C39.2 18 39.2 18 35.8 17.5C35 17.4 34.3 17.3 33.6 17.1C32.1 16.9 30.5 16.7 28.9 16.7C28.1 16.8 27.2 16.8 26.4 16.7C24.1 16.6 24.1 16.6 20.8 17.2C18.5 15.8 18.5 15.8 16.3 14.6C12.1 11.5 12.1 11.5 11.6 11.5ZM52.3 39.2C52.1 40 51.9 40.8 51.8 41.6C51.4 43.4 50.3 45.1 49 46.8C48 48.2 47.2 49.4 46.3 50.6C45.3 51.6 44.1 52.6 42.6 53.7C40.8 54.7 39.2 55.4 37.6 56.1C35.9 56.7 34.1 57.2 32.2 57.7C30 57.9 27.6 57.9 25.4 58.1C26.1 60.6 26.9 62.7 28.1 64.6C29.4 66.4 30.8 68 32.5 69.5C34.1 71 35.5 72.2 37.5 73.4C39.8 74.7 39.8 74.7 40.8 74.8C41.3 76.8 41.6 78.7 41.8 80.7C42.1 83.1 42.4 85.4 42.8 87.5C42.9 89.7 42.7 92 42.7 94.1C42.4 94.3 42.4 94.3 40.4 95.1C40.1 95.7 39.9 96.4 39.7 97.2C40.1 97.5 40.6 97.9 41.1 98.2C42.7 98.2 44.2 98.2 45.6 98.2C46.9 97 47.7 95.1 48.1 92.8C48.5 90.8 48.8 88.7 48.9 86.6C48.9 84.6 48.8 82.4 48.8 80.5C48.8 79.4 48.8 78.1 48.7 76.9C49.9 77.2 51.2 77.4 52.5 77.6C55.1 77.9 57.8 77.9 60.6 77.9C63.4 77.9 66 77.8 68.6 77.6C71.1 77.2 73.5 76.7 75.8 75.8C76.4 75.8 76.9 75.8 77.5 75.9C77.7 76.3 77.7 76.3 78.7 78.8C80.2 81.7 80.2 81.7 82.9 84C83.4 85.5 83.7 86.8 83.8 88.2C83.7 89.8 83.4 91.6 82.9 93.4C81.8 94.2 80.7 95 79.5 95.6C79.6 96.1 79.8 96.6 79.9 97.1C81 97.6 81 97.6 84.3 97.8C86.2 96.4 87.3 94.5 88 92.4C88.7 90.5 89.1 88.5 89.6 86.6C89.7 83.8 89.6 82.1 89 79.2C88.2 76.7 87.8 74.6 87.5 72.9C87.3 70.8 87.7 68.6 88.4 66.2C89.3 64.1 90 62.6 90.4 61.2C90.9 59.5 91.2 57.7 90.9 55.6C90.6 53.5 90 51.3 89.1 49.1C87.7 46.9 86.5 45.1 85.1 43.7C83.4 42.4 81.8 41.1 80.3 39.8C78.5 38.9 76.3 38.1 74.1 37.2C72.4 37 69.9 36.6 67.2 36.4C64.7 36.2 61.7 36.2 59.1 36.6C56.3 37 53.9 37.8 52.3 39.2ZM17.8 68.7C16.2 70.7 15.3 72.6 14.9 74.4C14.5 76.1 14.4 78.3 14.4 81.1C14.7 81.5 15.1 81.8 15.4 82.1C17.3 81.6 17.3 81.6 18.8 79.7C18.9 79.3 18.9 79.3 19.3 77.1C19.5 76.1 19.6 75 19.8 74C21.5 73.2 23 72.6 24.6 72.1C26.4 71.7 28.3 71.3 30.4 70.9C28.4 68.5 28.4 68.5 26.3 66.2C24.4 66 23 66.2 21.7 66.7C20.4 67.3 19.2 68.1 17.8 68.7ZM70.7 79.1C71 80.3 71.3 81.7 71.6 83.2C71.1 86.9 71.1 86.9 69.6 89.9C68.5 90.7 67.4 91.5 66.4 92.5C66.8 92.8 67.2 93.2 67.6 93.6C71.9 93.8 71.9 93.8 74.4 92.3C75.6 90.1 76.1 87.8 76.2 85.2C76.3 83 76.3 80.8 76.3 78.1C74.2 78 72.7 78.5 70.7 79.1ZM8.5 82C8.6 83 8.7 84 8.9 85.1C10.1 83.9 11.4 82.8 12.6 81.9C12.6 81.6 12.6 81.2 12.5 80.9C11.1 80.7 11.1 80.7 8.5 82ZM6.4 83.3C5.8 84.9 5.8 86.1 6 87.2C6.2 88.3 6.9 89.4 7.6 90.7C8.9 92.9 10 94.9 11.6 96.4C13.3 98.1 15.3 99.2 17.9 100.1C18.2 99.8 18.4 99.4 18.6 99C17.8 98.5 17 98 16.2 97.5C14.5 96 13.1 94.4 11.8 92.8C10.7 91.4 9.8 89.8 8.9 88.2C8.1 86.7 7.5 85.2 6.9 83.3C6.7 83.3 6.5 83.3 6.4 83.3ZM11.4 84.1C10.9 84.7 10.4 85.3 10 85.9C10.2 86.9 10.4 87.9 10.6 88.9C13.2 86.4 13.2 86.4 14.6 84.5C14.5 84 14.3 83.6 14 83.1C13.1 83 13.1 83 11.4 84.1ZM17.2 83.5C16.3 84.4 15.4 85.4 14.5 86.3C13.7 87.2 12.9 88.3 12.2 89.4C12.2 89.9 12.2 90.5 12.1 91.1C15 90.2 15.5 88.8 17.3 86.4C17.7 85.3 18 84.3 18.2 83.4C17.9 83.4 17.5 83.4 17.2 83.5ZM19.7 84C19.4 84.7 18.9 85.5 18.5 86.5C17.7 87.9 16.9 89 16.2 89.9C15.6 90.9 14.9 92 13.8 93.2C14.3 93.4 14.9 93.6 15.3 93.9C16.9 92.5 17.9 91.3 18.6 90.2C19.4 89.1 20.1 87.5 20.7 85.5C20.4 85 20.1 84.5 19.7 84ZM3.8 86.1C3.6 86.2 3.4 86.4 3.2 86.6C3.2 88.8 3.7 90.9 4.8 92.6C5.9 94.5 7.2 96.4 8.6 98.3C10.6 99.9 10.6 99.9 13.6 100.4C12.9 99.8 12.1 99.1 11.3 98.4C9.6 96.3 8.3 94.2 7.2 92C5.8 90.3 4.9 88.3 4.4 86C4.2 86 4 86 3.8 86.1ZM21.1 88.4C21 88.7 21 88.7 20.5 90.3C21 90.3 21.5 90.3 22 90.4C21.7 89.7 21.4 89.1 21.1 88.4ZM1.9 91.8C2.3 92.8 2.7 93.8 3.2 94.8C3.3 94.3 3.4 93.7 3.6 93.2C3 92.7 2.5 92.3 1.9 91.8ZM19.5 91.1C19.6 91.7 19.6 92.4 19.7 93.2C20 93.4 20 93.4 21.7 94C21.7 93.4 21.6 92.8 21.5 92.2C20.9 91.9 20.2 91.5 19.5 91.1ZM17.3 93.8C17.3 94.7 17.4 95.6 17.4 96.6C18.5 97 19.7 97.4 20.8 97.8C20.9 97.3 20.9 96.6 21 96C18.3 93.8 18.3 93.8 17.3 93.8ZM4.3 95.9C4.5 96.6 4.7 97.3 4.9 98.1C5.3 98.1 5.8 98.2 6.2 98.2C5.9 97.5 5.6 96.7 5.3 95.9C4.9 95.9 4.6 95.9 4.3 95.9ZM6.7 99.4C7 99.5 7 99.5 8.6 100.3C8.4 100 8.3 99.7 8.1 99.3C7.6 99.4 7.2 99.4 6.7 99.4Z" fill="#1D1D1B"/><path d="M17.7 26.9C18.3 27.1 18.9 27.4 19.7 27.7C19.8 28.6 19.9 29.4 20 30.3C19.7 30.6 19.7 30.6 18.8 31.8C18 31.5 17.3 31.3 16.7 31.1C16.6 30.6 16.6 30.6 16.4 28.2C16.8 27.8 17.2 27.3 17.7 26.9Z" fill="#1D1D1B"/><path d="M35.4 27.7C36.1 27.9 36.8 28.1 37.4 28.2C37.6 29.3 37.8 30.4 38 31.5C37.6 32.2 37.2 32.8 36.7 33.4C36.1 33.4 35.4 33.2 34.7 33C34.4 31.9 34.2 30.7 33.9 29.4C34.4 28.8 34.9 28.3 35.4 27.7Z" fill="#1D1D1B"/><path d="M37.5 36.4C38.6 37.6 39.5 38.3 40.1 39.3C40.8 40.5 41.2 41.9 41.4 44C41 46.8 40.5 48.2 38.8 51C37.4 52.3 36.1 53 34.6 53.7C32.9 54.5 31.1 55 29.1 55C27 55 24.9 55.1 22.9 55.1C20.9 54.5 19.2 53.7 17.7 52.5C16.2 51.3 14.9 50.1 13.7 48.6C12.5 46 12.3 44.3 12.2 41.2C12.9 38.8 12.9 38.8 15.5 36C17.5 34.8 19.4 34.3 21.5 34.3C24 34 26.9 34.2 30.2 34.6C33.2 34.9 35.6 35.5 37.5 36.4ZM16 37.7C14 40.6 14 40.6 13.6 43.9C14.1 45.8 14.7 47.1 15.6 48.2C16.2 49.2 17.1 50.3 18.5 51.6C20.3 52.7 22.2 53.4 24 53.7C25.9 53.8 27.9 53.8 29.9 53.6C31.8 53.3 33.8 52.4 35.5 51.5C37.3 49.6 38.4 48.3 39.5 45.7C39.7 42.2 39.7 42.2 38 39.3C36.8 38.1 35.9 37.4 34.6 37.1C33.3 36.8 31.7 36.8 29.1 37C28 37.8 27 38.5 26.1 39.3C26.2 40.4 26.3 41.5 26.4 42.6C27.1 42.5 27.4 42.4 28.3 42.3C29.2 42.2 30.9 41.9 34.5 41.8C34.1 43.6 33.8 44.6 33.2 45.5C32.8 46.4 32.3 47.5 31.4 49.5C29.8 50.5 28.4 51 27 51.1C25.5 51.3 23.9 51.1 22.1 50.3C20.2 48.8 20.2 48.8 18.2 46.2C17.8 43.7 17.8 43.7 17.6 41.2C18.4 41.5 19.2 41.8 20 42.2C22.7 43 22.7 43 24.3 42.9C24.2 41.6 24 40.3 23.8 39C21.7 37.4 20.8 36.5 19.9 36.3C19.1 36 18.1 36.4 16 37.7ZM18.7 43.7C20.2 47.2 20.2 47.2 22.9 49.6C24.4 50.2 24.4 50.2 28.4 49.8C31.2 47.7 31.2 47.7 32.4 45.2C32.6 44.4 32.9 43.6 33.2 42.8C32 42.8 30.8 42.9 29.6 43.2C28 43.5 26.3 43.8 24.4 44C22.4 44.1 20.5 44 18.7 43.7Z" fill="#1D1D1B"/></g></svg>
