<svg xmlns="http://www.w3.org/2000/svg" viewBox="0 0 102.8 82.7" width="102.8" height="82.7" role="img"><title>elephant</title><g data-role="accent"><path d="M23.3 55.8C26.1 57.7 26.1 57.7 26.6 58.4C26.6 61.6 26.6 61.6 25.3 64.6C23.6 65.7 22.7 65.5 20.3 64.6C18.1 62.2 18.1 62.2 17.7 60.5C17.7 58.8 17.7 58.8 19.1 56.7C20.2 55.9 20.2 55.9 23.3 55.8Z" fill="#FEE951"/></g><g data-role="ink"><path d="M89.1 9C90.8 10.7 92.3 12.8 93.4 14.9C94.6 17 95.5 19.1 96.6 21.3C98 23.6 99.1 25.9 99.8 28.1C100.4 29.9 100.9 31.8 101.3 33.9C101.7 36.1 102.2 38.5 102.5 41.2C102.6 42.1 102.7 43.1 102.8 44C102.4 44 102 44 101.6 44C101.5 43.7 101.5 43.7 100.8 42C100.4 41.1 100 40.2 99.6 39.3C99.2 38.5 98.9 37.7 98.7 36.9C98 34.9 98 34.9 96.7 32.3C96.7 32.6 96.7 32.6 96.9 34.1C97 36.3 97 38.6 97.6 41.2C98.1 43.7 98.3 46.2 98.3 48.5C98.3 50.8 98 53.3 97.5 55.7C97.4 58.2 97.3 60.6 97.1 62.9C96.9 65.1 97.1 67.3 96.9 69.7C96.8 70.9 96.7 72 96.6 73C96.6 73.8 96.6 74.5 96.6 75.3C96.5 76 96.5 76.6 96.4 77.3C96 79.1 96 79.1 94.8 80.3C92.9 81.4 90 80.8 87.9 80.6C87.2 80.3 86.6 80 86.1 79.8C85.7 78.1 85.8 76.8 85.6 75C85.5 74.6 85.5 74.6 85.3 72.8C85.3 72.1 85.2 71.4 85.3 70.6C85.4 69 85.4 67.5 85.4 66.1C85.4 65.5 85.4 64.9 85.4 64.1C85.2 62.2 85.2 62.2 84.5 59.8C84.3 59.8 84.2 59.9 84 59.9C83.9 62.1 84 64.3 83.9 66.1C83.8 67.9 83.8 70 83.8 72C84 73.6 84.2 75.2 84.2 76.7C82.3 78.2 82.3 78.2 79.9 78.4C76.2 78.3 76.2 78.3 74.2 76.9C73.7 74.5 73.3 72.1 73.5 69.6C73.4 67.1 73.3 64.9 73.5 62.1C72.6 62.2 71.8 62.3 70.9 62.4C68.2 62.6 65.7 62.6 63.1 62.4C60.3 62.3 57.5 61.8 54.9 61.2C54.9 61.8 55 62.3 55.1 62.9C55.2 65.3 55.4 67.8 55.4 70.1C55.4 70.5 55.4 70.5 55.4 72.8C55.3 73.7 55.3 74.6 55.3 75.5C55.2 76.3 55.2 77 55 77.7C54.6 79.6 54.6 79.6 52.7 82C50.2 82.7 48.2 82.5 45.6 82C43.8 80.3 44.2 79 44.1 75.9C44.1 75 44 74.2 43.9 73.4C43.8 72.6 43.7 71.7 43.7 70.8C43.5 69.1 43.5 67.4 43.8 65.5C43.9 64.6 44 63.8 44.1 63C44 61.1 44 61.1 43.5 58.9C42.4 60.1 42.2 63.1 42 66C42 69 42.2 72.1 42.2 73.5C42.1 75.2 41.9 77.1 41.8 79.1C39.3 80.2 37.2 79.9 34.6 79.3C32.5 78.7 32.5 78.7 31.4 77.4C31.5 75.9 31.7 74.4 31.9 73.1C32 71.7 32.1 70 32.1 68.2C32 67 31.9 66 31.7 64.9C31.4 63.2 31.2 61.6 31.1 59.9C31.1 58.2 30.9 56.5 30.7 54.8C30.7 54.4 30.7 54.4 30.6 52C29.9 47 29.9 47 28.5 45.4C24 46.5 21.8 46.9 20.6 47.2C19.4 47.5 18.9 48.1 17.9 49.4C17 52.1 17 53.6 17.2 56.5C17.8 56.1 18.4 55.6 19 55.1C20.4 54.3 21.9 54.5 23.7 54.7C26.4 56.3 26.4 56.3 28 58.5C28 60.2 28 62.1 28.2 64C28.8 64.7 29.4 65.3 30 66C30.2 66.4 30.4 66.8 30.7 67.2C29.7 68.6 28.9 69.8 28 70.7C27 71.6 25.7 72.2 24.2 72.7C22.1 72.6 20.3 72.3 18.2 71.4C16 70.6 14.4 69.7 12.5 68.2C10.6 66.5 9.7 64.7 8.9 62.7C7.7 60.8 7.1 58.7 7 56.2C6.7 53.9 6.5 51.7 6.5 49.2C6.5 48.7 6.5 48.7 6.5 45.8C6.5 45 6.5 44.1 6.6 43.2C6 43.1 5.5 43 5 42.8C3 42.2 1.4 41.2 0 39C0 38.4 0 37.9 0 37.3C2.9 37.7 5.2 37.9 7.2 37.9C7.4 36.8 7.6 35.7 7.8 34.6C8 32.2 8.4 30 9 28.2C9.7 25.6 10.2 22.9 11 20.5C11.7 18 12.3 15.8 13.4 14.1C14.8 12.1 16.7 10.3 19.1 8.7C21 7.4 23 5.8 25 4.8C27 4.2 29.2 3.8 31.7 3.7C34.1 3.4 36.6 2.8 39.1 2.2C41.5 1.3 43.9 0.4 46.5 0C49.1 0 51.5 0.3 54.3 0.7C57.2 1 59.6 1 62.1 1.1C64.6 1.2 67.1 1.2 69.6 1.5C72.3 1.9 74.8 2.3 77.1 2.8C79.6 3.7 81.8 4.7 83.8 5.4C85.7 6.3 87.3 7.7 89.1 9ZM16.2 12.9C14.5 15 13.6 16.8 13 19C12.1 21.4 11.5 23.9 11.3 26.5C10.5 28.9 9.9 31 9.3 33.3C8.9 35.7 8.4 38.4 8.3 40.8C8.2 43.3 8.2 45.9 8.2 48.4C8.1 49.2 8.1 49.9 8.1 50.7C8.3 52.8 8.5 54.7 8.9 56.7C9.2 58.7 9.9 60.4 10.8 62.1C11.4 63.8 12.1 65.4 13.4 67.1C15.3 68.6 16.9 69.4 18.7 70.1C20.6 70.7 22.3 71 24.4 71C26.8 69.7 26.8 69.7 28.3 68.1C28.4 67.6 28.5 67.2 28.6 66.7C28.3 66.6 27.9 66.5 27.6 66.3C27.3 65.9 26.9 65.4 26.6 65C26 65.5 25.5 66 24.9 66.4C22.1 66.6 20.9 66.2 18.2 64.4C17 62.1 16.2 60.1 15.9 58.1C15.5 56.3 15.5 54.2 15.8 51.7C16.3 49.4 16.3 49.4 17.5 46.8C17 46.6 16.4 46.4 15.8 46.2C14 45.3 14 45.3 12.4 44.3C12.2 43.5 12 42.8 11.8 42C12.7 42 13.7 42 14.7 42.1C16.7 42 18.3 41.9 20.2 41.5C22.2 41 23.9 40.3 25.8 39.1C27.8 37.8 27.8 37.8 29.9 38.1C31 40.5 31 40.5 30.4 43.1C30.1 44.5 30.1 44.5 30.6 46C31.9 48.4 32.1 50.7 32.3 53.3C32.3 53.9 32.3 54.6 32.4 55.3C32.5 56.8 32.6 58.4 32.7 59.9C32.7 61.9 32.9 64 33.3 66C33.4 66.7 33.4 67.5 33.5 68.3C33.5 70.3 33.5 72.2 33.4 73.7C35 74.9 35 74.9 37.5 75.8C37.6 76.2 37.6 76.2 38.4 78.2C39 78.1 39.6 78 40.3 77.9C40.3 77.3 40.3 76.7 40.3 76.1C40.6 73.8 41 71.7 41.1 69.3C41.1 68.5 41.1 67.6 41.1 66.8C41.1 66 41.2 65.3 41.2 64.5C41.2 64.2 41.2 64.2 41.2 62.3C41.4 60.3 41.4 60.3 42.2 58.2C42.9 58 43.6 57.9 44.4 57.7C45.2 59.2 45.7 60.9 45.9 62.6C45.9 64.5 45.4 66.5 45.2 68.4C45.3 70.1 45.4 71.9 45.6 73.6C45.8 74.5 46 75.5 46.1 76.5C48.3 78 48.3 78 50.5 78C50.8 78.9 51 79.7 51.3 80.6C51.9 80.5 52.5 80.3 53.1 80C53.1 79.5 53.1 79.5 53.2 76.7C53.2 75.1 53.4 73.4 53.5 71.8C53.5 71.1 53.5 70.3 53.5 69.6C53.6 67.9 53.6 66.3 53.8 64.9C53.9 63.3 53.8 61.6 54.1 59.8C54.3 59.9 54.3 59.9 55.4 60.2C58.2 60.5 60.9 60.7 63.4 60.8C66.1 60.9 68.7 60.9 71.2 60.4C73.5 60.1 75.4 59.9 78.1 59.6C80.9 59.3 83.2 58.7 86.1 58C86.5 60 86.7 62.2 86.8 64.3C87 66.4 87 68.4 87 70.7C87 71.2 87 71.2 87.1 73.9C87.2 74.6 87.2 75.4 87.2 76.2C88.6 76.6 90.1 77 91.6 77.3C91.8 77.6 91.8 77.6 92.7 79.3C94.4 78.8 94.4 78.8 94.8 78.3C95 76.4 95.1 74.5 95.2 72.5C95.5 70 95.7 67.5 95.5 65.3C95.6 63.1 95.9 60.8 95.9 58.5C95.9 56.1 96.2 53.8 96.4 51.5C96.5 50.6 96.5 49.7 96.5 48.9C96.5 46.5 96.4 44 96 41.5C95.5 39.1 95.4 36.7 95.3 34.5C95 32.4 94.6 30.3 94.2 28.3C94.8 28.2 95.4 28.2 96 28.2C96.1 28.5 96.1 28.5 96.7 30C97.4 31.1 98.2 32.2 99 33.3C99.5 31.8 99.1 30 98.4 28.3C97.6 26.3 96.2 24.2 95.3 22.6C94.2 20.2 93.3 17.9 92.1 15.6C90.8 13.4 89.1 11.4 86.9 9.8C85 8 83 6.8 80.4 5.9C78.4 5.2 76.1 4.7 73.7 4.3C71.3 3.9 68.8 3.4 66.3 3.3C63.9 3.3 61.5 3.2 59.1 3.3C56.7 3.3 53.7 2.5 51.1 2.1C48.8 1.9 46 1.9 43.5 2.4C41.1 3.2 38.6 3.9 36 4.6C33.5 4.9 31 5.1 28.7 5.6C26.4 6.2 24.2 7.1 22.1 8.6C20.2 10.3 18.2 11.6 16.2 12.9ZM25.7 40.5C24.9 41.1 24.1 41.6 23.3 42.1C21.5 42.7 19.7 43 18.1 43.2C16.8 43.3 15.4 43.4 13.7 43.4C15.1 44.6 16.5 45.1 18 45.3C19.6 45.6 21.3 45.6 23.1 45.7C25.6 44.8 27.5 43.9 29.7 42.4C29.6 41.9 29.6 41.9 29.4 39.4C27.8 39.1 27.8 39.1 25.7 40.5ZM2.3 39.3C3.9 41.1 4.7 41.5 6.6 42C6.8 41.2 7 40.4 7.1 39.6C5.5 39.3 5.5 39.3 2.3 39.3ZM19.1 57C18.1 58.4 18.1 58.4 18.1 61.8C19.8 64.1 19.8 64.1 20.7 64.7C24.2 65.1 24.2 65.1 25.9 63.1C26.6 59.7 26.6 59.7 25.1 57C22.2 55.4 21.5 55.5 19.1 57ZM75 61.6C75 63.9 75.1 65.8 75.1 67.6C75 69.7 74.8 71.9 75 73.9C75.7 74.1 76.4 74.2 77.1 74.3C77.4 75.1 77.8 75.9 78.2 76.8C80.4 77 80.4 77 82.4 76.4C82.1 74.8 81.8 73.3 81.6 71.7C81.6 69.7 81.7 67.9 81.8 66.1C82 64.3 82 62.5 82 60.5C79.9 60.6 79.9 60.6 75 61.6ZM75.6 75.1C75.7 75.7 75.8 76.3 76 76.9C76.2 76.9 76.5 76.9 76.8 76.9C76.7 76.3 76.6 75.7 76.4 75.1C76.2 75.1 75.9 75.1 75.6 75.1ZM33.2 74.9C33.3 75.7 33.4 76.6 33.5 77.5C33.7 77.5 33.8 77.5 33.9 77.5C34 76.6 34.1 75.8 34.3 74.9C33.9 74.9 33.5 74.9 33.2 74.9ZM35.7 75.8C35.6 76.1 35.6 76.1 35.2 77.5C35.8 77.7 36.4 77.9 37 78.1C36.7 77.3 36.4 76.6 36.2 75.8C36 75.8 35.9 75.8 35.7 75.8ZM87.6 76.9C87.4 77.5 87.3 78 87.1 78.6C87.6 78.7 88.1 78.8 88.7 79C88.4 78.3 88.2 77.6 88 77C87.8 76.9 87.7 76.9 87.6 76.9ZM90 77.7C89.9 77.9 89.9 77.9 89.6 79.1C90.2 79.3 90.8 79.5 91.4 79.7C91.3 79.3 91.3 79.3 90.9 77.7C90.6 77.7 90.3 77.7 90 77.7ZM46.2 78C46.2 78.8 46.2 79.6 46.2 80.4C46.6 80.5 47 80.6 47.5 80.6C47.5 79.9 47.5 79.2 47.5 78.5C47 78.3 46.6 78.2 46.2 78ZM49.1 78.8C49 79.4 48.9 80.1 48.7 80.9C49.2 80.9 49.7 80.9 50.2 80.9C50.2 80.6 50.2 80.6 49.8 78.8C49.6 78.8 49.4 78.8 49.1 78.8Z" fill="#1D1D1B"/><path d="M58 9C59.7 10.2 60.8 11.4 61.5 12.9C62.2 14.5 62.8 16.1 63.5 17.8C63.7 19.8 64.1 22.1 64 24.1C63.9 25.9 63.6 27.9 63.1 30C62.7 32 62.2 34 61.2 36C60 38 59.1 39.9 58.3 41.6C57 43.1 55.9 43.7 54.5 44C53.1 44.4 51.6 44.5 49.6 44.5C47.8 43.9 46.4 43 45.1 41.9C43.7 40.9 42.4 39.6 41 37.9C40.9 37.3 40.8 36.6 40.8 35.9C42.9 36.6 43.8 38.2 45.5 40.1C48.1 41.8 49.9 42.7 52.8 42.5C54.5 42.2 54.5 42.2 56.6 40.5C57.5 38.6 58.7 36.6 59.7 34.3C60.5 32.3 61.2 30.2 61.7 27.7C62 25.4 61.8 23.4 61.6 21.6C61.6 21.2 61.6 21.2 61.5 19.6C61.2 18 60.8 16.9 60.3 15.8C59.8 14.5 59.2 13.3 58.3 12C56.8 11.3 55.6 10.7 54.4 10.4C53.1 10 51.8 9.8 49.8 9.7C48 9.8 46.4 10.4 45 11.3C43.6 12.2 42.5 13.2 41.6 14.5C41.4 14.6 41.2 14.6 41 14.6C41.2 12 41.8 11.5 44.1 9.8C46.2 8.4 48.5 7.5 51 7.7C53.4 7.7 55.7 8 58 9Z" fill="#1D1D1B"/><path d="M31.3 24.6C33.2 24.6 33.2 24.6 33.5 25C33.5 25.7 33.5 26.4 33.5 27.2C33.2 27.5 33 27.9 32.7 28.2C30.7 28.1 30.7 28.1 30.4 27.7C30.5 25.6 30.5 25.6 31.3 24.6Z" fill="#1D1D1B"/></g></svg>
