<svg xmlns="http://www.w3.org/2000/svg" viewBox="0 0 102.6 92.8" width="102.6" height="92.8" role="img"><title>sippyCupWithHandles</title><g data-role="accent"><path d="M20.1 23.9C21.7 24.4 23.5 24.9 25.6 25.6C28.2 26.2 30.4 26 33.1 26.3C36 26.8 38.8 26.8 41.6 26.7C44.2 26.5 46.9 26.5 49.3 26.6C51.8 26.8 54.1 27.1 56.4 27.5C59.1 27.2 59.1 27.2 60.3 28.2C60.5 29.8 60.5 31.6 60.4 33.6C58.7 34.1 56.6 34.3 53.7 34.7C51.1 35.2 48.7 35.3 45.6 35C42.7 34.9 39.8 34.9 36.9 35C34 34.6 31.1 33.9 28.1 33.3C25.5 32.8 23.2 32.2 21.5 31.7C19.2 30.2 19.2 30.2 18.1 28.9C18.9 25 18.9 25 20.1 23.9Z" fill="#FEE951"/><path d="M83 24.6C83.9 27.1 83.9 27.1 83.2 29.8C81.9 30.6 80.6 31.1 79.2 31.5C77.7 32 76.3 32.3 74.5 32.1C73.1 30.6 73.6 28.2 73.7 26.7C77.3 25.4 78.9 24.6 80 24.4C81.2 24.1 81.8 24.3 83 24.6Z" fill="#FEE951"/><path d="M68.1 27C68.6 27.5 68.6 27.5 68.8 30.1C68.8 31.1 68.9 32.2 69.1 33.4C67 34.7 64.1 33.8 62 33.6C62.1 31.4 62.1 29.3 61.7 27.2C64.4 27 64.4 27 68.1 27Z" fill="#FEE951"/></g><g data-role="ink"><path d="M51.1 0C51.9 0 52.7 0 53.6 0.1C56 0.4 56 0.4 59.3 2.3C60.4 4.3 60.4 4.3 61.3 6.7C62 8.5 62.3 9.7 62.8 10.9C63.3 11.9 64 12.8 65.1 14.4C67.2 15.9 69.6 16.4 72.5 16.6C73.4 16.7 74.3 16.8 75.2 16.8C76 16.9 76.8 16.9 77.7 17C79.7 17.3 81.1 18.1 82.4 19.4C83.4 20.6 84.3 22.1 85.3 23.9C85.7 25.9 85.7 25.9 85.3 30.4C83.8 32 83.8 32 82.9 32.6C82.8 33.1 82.7 33.7 82.6 34.3C83.5 34.4 84.4 34.5 85.5 34.5C87.6 34.7 89.4 35.2 91.3 35.9C93.1 36.6 94.5 37.5 95.6 38.6C96.7 39.5 97.7 40.6 98.8 42.4C99.9 45 100.9 47.4 101.6 49.6C102.2 51.8 102.6 53.6 102.5 55.5C102 57.2 101.4 59.1 100.8 61.2C100 63.1 99.2 64.9 98.3 66.6C97.3 68.4 96.1 70.1 94.6 71.3C93.2 72.5 91.7 73.7 89.8 74.8C88.1 75.5 86.9 75.8 85.7 75.9C84.5 76 83.3 76 81.6 75.9C81.6 76.6 81.5 77.4 81.4 78.2C81.1 80.6 80.7 82.3 79.7 83.7C78.6 85.2 77 86.7 75.1 88.3C72.9 89.4 70.5 90 68.3 90.4C66 91 63.7 91.5 61.5 92C59.3 92.5 56.9 92.8 54.7 92.6C52.5 92.4 50 92.1 47.5 91.7C45 91.2 42.3 91.1 39.7 90.8C37.3 90.6 34.9 90.3 32.7 90.1C31 89.4 29.7 88.8 28.4 88C27.2 87.3 26.1 86.2 24.7 84.9C24 83.6 23.3 82.2 22.6 80.7C21.9 79.3 21.4 77.9 21.1 76.2C20.6 76.1 20.6 76.1 17.5 75.9C15.1 75.6 13.2 75.1 11.6 74.5C10.1 73.8 8.7 72.7 7.3 71.4C5.9 70.2 4.7 69 3.4 67.4C2 65.1 0.8 62.8 0.2 60.7C0 58.8 0 57 0.2 55.2C0.4 53.3 0.6 51.2 0.7 48.5C1.3 45.8 2.3 43.7 3.6 41.8C4.9 39.6 7.2 37.9 9.7 36.2C11.8 35.2 13.4 34.5 15 34.1C16.5 33.9 17.8 34.1 19.5 34.6C19.1 32.4 19.1 32.4 16.4 29.8C16.4 26.5 16.4 26.5 18.1 23.5C19.8 21.3 21.1 19.9 22.4 18.5C24 17.2 25.8 16.6 27.6 16.2C29.4 15.8 31.2 15.2 33.4 14.9C36.3 14.4 38.3 13.5 39.8 10.6C40.7 8.1 40.7 8.1 41.4 5.2C42.2 2.9 43.4 1.7 45.2 1.1C47 0.3 48.9 0.1 51.1 0ZM43.9 4.5C43.2 6.7 42.8 9 42.2 11.7C41.3 13.7 40.4 14.7 39.2 15.4C38 16.1 36.6 16.6 34.7 17.3C32.4 17.7 29.9 18 27.4 18.4C25 19 25 19 22.2 22.3C24.2 23.2 26.5 24 28.7 24.6C30.7 24.7 33.2 25.2 35.9 25.8C38.7 25.9 41.5 25.9 44 25.8C46.7 25.8 49.1 25.8 51.7 25.9C54 26.2 56.2 26.6 58.5 26C60.9 25.7 63.3 25.8 65.7 25.6C68.1 25.3 70.8 25 73.5 24.5C76 23.6 78.4 22.7 80.7 22C79.8 20.3 78.6 19.6 77.2 19.3C75.7 19.1 74 19.2 72 19.1C68.9 18.5 66.6 18 64.9 16.9C63.1 15.6 61.7 14 60.6 11.7C60.3 10.3 60 8.9 59.5 7.5C58.9 6.1 58.3 4.7 57.7 3.6C55.1 1.9 54 2.2 51.1 2.2C50.3 2.1 49.6 2.1 48.8 2.1C46.5 2.4 46.5 2.4 43.9 4.5ZM20 24.4C19.6 24.8 19.2 25.1 18.9 25.5C18.8 26.6 18.7 27.8 18.7 29C20.3 30.4 21.9 31.5 23.9 32.2C26 32.8 28.3 33.2 30.9 33.6C33.2 33.9 35.4 34.2 37.7 34C40.1 33.6 42.4 33.3 44.6 33C47.1 33.1 49.3 33.2 51 33.2C51.4 33.3 51.4 33.3 54.4 33.2C60.6 33.7 64.9 34 68.7 34.2C72.4 33.8 74.8 33.7 76.5 33.5C78.4 33.2 79.6 32.6 80.7 31.9C81.6 31.3 82.3 30.4 83.2 29.3C82.9 25.3 82.9 25.3 82.5 24.7C80.4 24.9 78.6 25.2 76.8 25.7C74.7 26.1 72.7 26.5 70.4 26.8C67.7 27 65.3 27.3 62.9 27.4C60.5 27.3 58 27.8 55.4 28C53.1 27.7 50.6 27.5 48.1 27.2C45.6 27.3 42.8 27.4 40 27.5C37.1 27.7 34.3 27.4 31.4 26.7C29 26.7 26.7 26.4 24.2 25.3C22.3 24.7 22.3 24.7 20 24.4ZM21.7 33.2C21.8 35.2 21.7 37.3 21.8 39.4C22.2 41.4 22.4 43.3 22.6 45.1C22.9 46.9 23.2 48.8 23.2 50.8C22.8 53 22.6 55.5 22.4 58.2C22.2 59.9 22.1 61.6 22.1 63.1C22.2 64.7 22.6 66.2 22.9 67.7C23 68.2 23 68.2 23.5 70.4C23.7 72.3 23.6 74 23.7 75.6C24.1 77.2 24.6 78.7 25.3 80.2C26 81.9 26.9 83.4 28 84.9C29.4 86.2 31.5 87.1 33.6 87.9C35.9 88.8 38.5 89 41.2 89.2C43.9 89.5 46.7 89.7 49.3 89.8C52.1 89.9 54.7 89.8 57.2 89.4C59.4 89.2 61.5 89.1 63.5 89C66.2 88.6 68.5 88.2 70.8 87.7C73.2 86.8 75.2 85.1 77.4 82.5C78.8 80.2 79.4 77.6 79.7 75C79.7 72.3 79.7 69.6 80 67C80.1 66 80.1 65 80.2 64C80.3 62.4 80.3 60.9 80.3 59.4C80.3 58 80.5 56.5 80.6 55.1C80.7 53.1 80.9 51.2 80.9 49.2C80.9 46.7 81 44 81.1 41.4C81 38.8 80.8 36.3 80.5 33.8C78.8 34 77.2 34.3 75.7 34.4C74.2 34.6 72.7 34.8 71.1 35.2C68.7 35.7 66.2 35.7 63.8 35.6C61.6 35.5 59.3 35.3 57.1 35C54.5 35.2 51.9 35.5 49.8 35.5C47.6 35.5 45.1 35.3 42.8 35.3C40.6 35.4 38.3 35.6 36 35.7C33.8 35.3 31.4 34.9 28.6 34.4C26.1 34 24 33.7 21.7 33.2ZM82.9 36.5C83 38 82.9 39.5 82.8 41C83.7 41.5 84.6 41.9 85.5 42.2C87.4 42.6 88.8 43 89.8 43.5C90.8 44.1 91.5 45 92.6 46.7C93.5 49.3 94.3 51.9 94.6 54.3C94.7 56.6 94.2 58.9 93.1 61.5C92.1 63.3 91.1 64.8 89.7 66C88.4 67.1 87.2 67.7 85.5 68.5C84.9 68.7 84.9 68.7 81.7 69C81.5 70.5 81.5 72 81.6 73.6C83.9 73.8 86.1 73.6 88.2 72.8C90.5 71.8 92.6 70.3 94.9 68.3C96.3 66.2 97.3 64.3 98 62.5C98.6 60.6 99.1 58.9 99.6 57.3C100.3 55.7 100.5 53.9 100.2 51.8C99.5 49.8 98.7 47.9 97.9 46.1C97.1 44.2 96.4 42.6 95.3 41.3C94.5 40.2 93.5 39.2 91.8 38.3C90.1 37.8 88.6 37.4 87.2 37.2C85.8 37 84.4 36.8 82.9 36.5ZM6 42.3C4.7 44.6 3.9 46.6 3.5 48.6C3.1 50.5 2.7 52.5 2.5 54.4C2.2 56.3 2.1 58.3 2.3 60.4C3.2 62.9 4.7 65.3 6.4 67.4C8.2 69.5 10.5 71.3 12.9 72.5C16.3 73.5 16.3 73.5 21.7 73.5C21.6 72.3 21.5 71 21.3 69.8C19.8 69.4 18.4 69.1 17 68.7C14.8 67.9 13.1 67.2 11.7 66C10.2 64.5 9.2 62.6 7.8 60.3C7.1 58.4 7 56.1 7.2 54C7.2 52.3 7.6 50.3 8.6 48.5C9 47.8 9.3 47.2 9.7 46.4C9.9 45.8 10.1 45.2 10.3 44.5C11.9 43.6 13.5 42.7 15.1 42.1C16.6 41.6 18.2 41.3 19.8 41.2C19.7 39.6 19.6 38 19.6 36.3C17.3 35.8 15.1 36.2 13 37.2C10.6 38.5 8.2 40.3 6 42.3ZM13.6 45C11.8 46.8 10.7 48.1 10.1 49.5C9.4 50.9 8.9 52.4 8.8 54.4C8.9 56.9 9.3 59 10.2 60.8C11 62.6 12.2 64.3 14 65.8C16.4 66.8 18 67.1 20.7 67.3C20.4 64.8 20.4 62.2 20.8 59.2C20.8 56 21 52.9 21 50.1C20.9 48.8 20.7 47.6 20.6 46.3C20.5 45.3 20.4 44.4 20.4 43.3C17.6 43.2 17.6 43.2 13.6 45ZM82.8 43.8C82.7 46.5 82.6 49 82.5 51.6C82.3 53.9 82.2 56.4 81.9 58.8C81.9 61.4 81.9 64.1 81.9 66.8C84 66.7 85.6 66.4 86.8 65.8C88 65.3 89.3 64.3 90.8 62.6C91.8 60.5 92.5 58.7 92.7 56.9C93 55 92.8 53.1 92.3 50.9C91.7 49.2 91.3 48.2 90.7 47.2C90.1 46.1 89.4 45.3 88.2 44.4C85 43.8 85 43.8 82.8 43.8Z" fill="#1D1D1B"/><path d="M49.2 48.3C49.8 48.4 50.5 48.5 51.1 48.6C50.7 50.6 50.2 52.3 49.8 53.9C49.5 55.4 49.1 57.1 48.6 58.9C50.3 58.3 52 57.7 53.6 57.1C53.7 57.8 53.7 58.6 53.7 59.3C51.6 60.6 51.6 60.6 47.9 61.1C47.5 60.7 47.1 60.4 46.7 60.1C46.5 58.3 46.4 56 46.6 54.1C46.8 52.3 47.6 50.1 49.2 48.3Z" fill="#1D1D1B"/><path d="M68.7 50.2C69 51.1 69.4 52 69.8 52.8C69.5 53.5 69.1 54.2 68.8 54.9C66.6 55.6 66.6 55.6 64.1 54.5C63.3 52.3 63.3 52.3 64.4 50.2C65.6 49.7 65.6 49.7 68.7 50.2Z" fill="#1D1D1B"/><path d="M36.5 48.9C37.3 49.5 38.1 50.1 38.9 50.9C38.7 52.1 38.5 53.3 38.4 54.7C37.7 54.7 36.9 54.8 35.9 55C35.3 54.2 34.6 53.5 33.8 52.9C34 51.9 34.1 50.9 34.2 50C35 49.6 35.7 49.2 36.5 48.9Z" fill="#1D1D1B"/><path d="M57.9 64.8C58.3 67 58.3 67 56.9 69.9C54.6 72.3 54.6 72.3 53.3 73C51.1 73.3 49.9 73.3 49.1 73.1C48.2 72.9 47.5 72.4 46.1 71C44.7 68.5 44.7 68.5 44.6 66.2C49.4 65.3 51.3 64.2 52.9 63.9C54.6 63.7 55.7 64.1 57.9 64.8ZM47 68.3C49.2 70.7 49.2 70.7 50.1 71.2C51.2 71.2 52.2 71.1 53.3 70.9C55.4 68.2 55.4 68.2 56 66.5C54.5 66.5 53.2 66.7 51.8 67.1C50.3 67.5 48.8 68 47 68.3Z" fill="#1D1D1B"/></g></svg>
