<svg xmlns="http://www.w3.org/2000/svg" viewBox="0 0 103.9 75" width="103.9" height="75" role="img"><title>stethoscope</title><g data-role="accent"><path d="M55.2 18.8C56.9 19.2 56.9 19.2 58.2 20.4C58 21.9 57.4 23.3 56.7 24.7C56 26.2 55.4 27.6 54.8 29C54.4 31 54.3 32.7 54.5 34.3C54.9 36.1 55.8 37.8 57 39.5C58.5 41.1 59.9 42.4 61.2 43.5C62.4 44.5 63.6 44.8 65.3 45.1C66.7 45.1 68.2 45.1 69.6 45.1C70.8 45 71.9 45 73.4 44.8C74.1 44.8 74.9 44.7 75.7 44.8C77.6 46.5 77.6 46.5 77.5 48.7C75.3 49.4 73.3 49.8 71.3 49.8C69.2 49.8 67.3 50 65.5 50C63.8 49.9 62.1 49.5 60.3 49C59.6 48.5 58.9 47.9 58.2 47.2C56.3 45.7 56.3 45.7 53.8 46C52.9 46.3 51.9 46.8 50.9 47.2C49.1 46.8 49.1 46.8 47.6 43.9C47.6 43.2 47.6 42.6 47.6 42C49.6 40.7 49.6 40.7 51.4 40.1C51.1 37.4 51.1 37.4 50.6 36C50.5 34 50.5 32.1 50.6 30.3C50.8 28.5 51.2 26.9 51.7 25.1C52.4 23.2 53.4 21.3 54.5 19.7C54.7 19.4 55 19.1 55.2 18.8Z" fill="#FEE951"/></g><g data-role="ink"><path d="M81 0.5C82.9 1.1 83.9 1.5 85.3 2.8C85.8 2.9 86.4 2.9 87 3C89.3 3.4 90.3 4.1 91.6 5.9C91.7 6.8 91.7 7.6 91.8 8.5C89.9 10.9 89.9 10.9 88.4 11.4C87 11.3 87 11.3 85.4 9.4C84.2 7 83.9 6 83.8 3.6C79.2 2 79.2 2 76.6 2.4C75.1 3.1 73.4 4.2 71.9 5.2C70.4 6.2 68.8 7.7 67.1 9C65.5 10.6 64 12.6 62.4 14.4C61 15.8 59.7 17.5 58.9 19.2C59.1 19.6 59.1 19.6 59.8 21.4C59.2 23.1 59.2 23.1 58 25.1C57.7 25.8 57.4 26.5 57.1 27.3C56.8 27.9 56.6 28.5 56.3 29.1C55.7 31.1 55.6 32.9 55.9 34.6C56.4 36.3 57.5 38 58.6 39.5C59.9 40.6 60.9 41.5 62 42.2C62.9 42.8 63.8 43.1 65 43.4C66.2 43.4 67.6 43.4 69 43.4C70.3 43.4 71.5 43.4 72.8 43.1C74.4 43.4 76 43.6 77.5 43.9C77.8 44.4 78.1 44.9 78.4 45.4C84.6 43.6 89 42.3 91.8 41.4C94.2 40.5 95.7 39.7 96.8 38.8C97.8 38 98.7 37.1 100.1 35.8C101.6 33 101.7 32 101.4 29.4C101.1 28.7 100.8 28 100.4 27.2C99.3 26.8 98 26.4 96.9 26.1C95.3 25.1 95.3 25.1 94.2 23.6C94.2 20.7 94.2 20.7 96.3 18.7C96.7 18.7 96.7 18.7 99.1 18.2C101.2 19.8 101.2 19.8 102 21.6C102 22.4 102.1 23.2 102.1 24C102.5 26.4 102.9 27.7 103.8 29.9C103.9 31.5 103.9 32.6 103.6 33.8C103.1 35 102.3 36.3 101.2 37.7C99.8 39 98.3 40 96.7 41.1C95 42.3 93.4 43.2 91.8 43.8C89.9 44.6 87.7 45.1 85.6 45.6C83.4 46.5 81.3 47 79.3 47.1C79.3 47.8 79.3 48.5 79.3 49.2C77.8 50.6 76.1 51.3 74.4 51.6C72.5 51.8 70.5 51.6 68.7 51.6C66.4 51.7 64.3 51.6 62.2 51C60.1 50.6 57.9 49.7 56.3 47.5C53.7 47.7 53.7 47.7 51.2 49C50.2 48.9 49.2 48.9 48.2 48.8C46.5 50.2 45.2 52 44.2 53.8C43.2 55.3 42.2 57 41.1 59C40.2 61.7 38.9 64 37.5 65.7C36.2 67.5 34.3 69.1 32.4 70.2C31 71.7 29.5 73.1 27.4 74.1C25.4 74.4 23.3 74.6 21.3 74.8C19.3 75 17.4 75 15.5 74.6C13.7 74 11.8 73 9.7 72C8.1 70.7 7.1 69.5 6.1 68.1C5.2 66.7 4.3 65.4 3.5 63.7C2.4 61.9 1.5 59.8 0.6 57.4C0 54.9 0 52.9 0.2 51.2C0.5 49.3 1 47.3 1.7 45.4C2.6 43.8 3.7 42.2 4.8 40.2C5.4 39.5 6 38.9 6.5 38.3C7.8 36.8 7.8 36.8 7.5 34.8C7.2 34.2 7 33.5 6.8 32.8C6.6 31 6.7 29.5 7.1 28.1C7.5 26.8 8.1 25.4 9.3 23.9C10.4 22.7 11.5 21.9 12.8 21.5C14.1 21 15.4 20.8 16.9 20.8C18.4 21.2 19.6 21.9 20.6 22.5C21.8 23 22.8 23.8 24.1 25C25 26.7 25.6 27.9 25.8 29.2C26.1 30.6 26.1 32.1 26 33.9C25.4 36.3 24.4 37.7 22.6 39.2C21.1 40 19.8 40.5 18.6 40.8C17.3 41.2 15.9 41 14.1 40.3C13.6 40.2 13.1 40 12.5 39.9C11.3 41.7 10.1 43.7 8.9 45.6C7.9 47.5 7.3 49.3 6.8 51.3C6.3 53.2 6.1 55.2 6.7 57.5C7.4 59.7 8.2 61.5 9.1 63.1C10.1 64.7 11.1 66.1 12.6 67.5C14.9 68.6 16.8 69 18.7 69C20.4 69 22.3 68.7 24.6 68.3C26.7 67.5 28.1 66.4 29.6 65.4C31.1 64.5 32.2 63 33.4 61.1C34.5 59.1 35.7 56.9 37 54.6C38 52.7 38.8 50.9 39.7 49.4C40.7 48 42.3 46.6 44.3 45C45.7 43.6 45.7 43.6 46.4 41.5C47.5 40.5 48.7 39.8 50 39.3C49.9 38.8 49.8 38.2 49.7 37.6C49.1 35.5 49 33.5 49.1 31.4C49.1 29.5 49.7 27.6 50.2 25.8C50.6 23.8 51.5 21.7 52.5 19.8C53.8 18.2 53.8 18.2 55.1 17.2C55.8 17.2 56.5 17.2 57.2 17.1C58.5 15.9 59.7 14.7 60.7 13.4C62.1 11.9 63.4 10.3 64.7 8.9C65.3 8.2 66 7.6 66.7 7C68.1 5.7 69.4 4.4 70.7 3.4C72.1 2.3 73.6 1.5 75.2 0.8C76.8 0.2 78.7 0 81 0.5ZM85.3 4.7C85.4 6.9 85.4 6.9 87.1 9.1C88.3 9.6 88.3 9.6 89.8 8.8C90 8.2 90.2 7.6 90.4 6.9C88.6 4.9 88.6 4.9 87.7 4.6C86.9 4.7 86.1 4.7 85.3 4.7ZM54.9 19.3C53.4 21.6 52.1 24.2 51.4 26.7C50.8 29.1 50.5 31.5 50.6 34.4C50.9 35.7 51.2 37.1 51.5 38.4C51.4 39 51.4 39.6 51.4 40.1C49.5 41.1 49.5 41.1 47.6 42.5C48.4 44.9 48.4 44.9 50.4 47.2C51.2 46.9 51.9 46.5 52.7 46.1C53.5 45.7 54.2 45.5 55 45.2C57.1 46.2 57.1 46.2 59.1 47.6C60.8 48.7 62.4 49.2 63.9 49.5C65.6 49.9 67.4 49.8 69.4 49.6C71.4 49.8 73.5 49.8 75.5 49.4C76 49.2 76.5 48.9 77.1 48.7C77.6 46.9 77.6 46.9 76.6 45.3C73.3 44.9 73.3 44.9 71.2 45.2C69 45.6 66.6 45.4 64.6 44.9C63.1 44.7 61.6 43.9 59.9 42.4C58.3 41 57.1 39.8 56.1 38.4C55.1 36.8 54.5 35 54.3 33C54.4 31.5 54.7 30 55 28.4C55.4 26.8 56 25.2 57.1 23.5C57.9 22.1 57.9 22.1 57.4 20C57.1 19.7 56.8 19.4 56.5 19.2C55.9 19.2 55.4 19.2 54.9 19.3ZM95.9 21C95.9 23 95.9 23 97.3 24.2C98.9 25.3 98.9 25.3 100.7 25.4C100.6 23.1 100.5 22.1 99.1 19.9C97.5 19.9 97.5 19.9 95.9 21ZM9.9 26.2C8.2 28.6 8.5 30.5 8.6 33.7C9.6 35.8 11.1 37 13.2 38.4C15.1 38.8 16.4 39.1 17.6 39.1C18.7 39.1 19.7 38.9 21.1 38.4C22.8 37.1 23.8 35.6 24.5 33.1C24.6 29.8 24.1 28.6 22.5 25.9C20.3 24 18 22.8 15.9 22.6C13.8 22.8 11.7 24 9.9 26.2ZM9 37.8C7.3 39.6 6 41.7 4.7 43.7C3.2 45.6 2.4 47.8 2 50.3C1.6 52.4 1.5 54.7 2.2 57.5C3.4 60.5 4.8 63 6.2 65.1C7.3 67.1 8.7 68.9 10.5 70.5C12.5 71.4 14.2 72.2 15.9 72.8C17.6 73.2 19.3 73.4 21 73.2C22.9 73.1 24.8 72.9 26.7 72.4C28.8 71.4 30.3 70.4 31.5 69.2C33.1 68.1 34.6 66.8 35.8 65.3C36.8 63.7 38.1 61.6 39.1 59.2C41.8 54.2 42.8 52 43.8 50.5C45 49.1 45.8 48.6 47.5 47.6C47.4 47.3 47.4 47.3 47.2 45.8C45.8 45.8 45.8 45.8 43.9 47.4C42 48.9 40.7 50.5 39.9 52.2C39.1 54 38 56.1 36.8 58.4C35.3 61.2 33.9 63.7 32.3 65.3C30.7 66.8 29.1 68.2 26.8 69.5C23.9 70.4 21.5 70.7 19.1 70.6C16.8 70.5 14.3 69.9 11.6 68.7C10.2 67.4 9.1 65.9 8.1 64.2C7 62.6 6.1 60.7 5.2 58.5C4.3 55.8 4.2 53.5 4.6 51.5C5.1 49.2 5.8 46.9 7.2 44.9C8.6 42.8 9.9 40.8 11.2 38.8C10.7 38.5 10.3 38.1 9.9 37.7C9.6 37.7 9.3 37.8 9 37.8Z" fill="#1D1D1B"/><path d="M18.2 26.1C20.4 28.1 20.4 28.1 21.2 29.9C20.9 33.2 20.9 33.2 19.4 35.3C18.1 35.8 18.1 35.8 15.6 35.5C13.4 33.9 13.4 33.9 12 32C11.9 29 12.2 28.6 14.3 26.5C15.2 26 15.2 26 18.2 26.1ZM14.3 28.3C13.5 29.9 13.5 29.9 14 32.2C14.3 32.5 14.3 32.5 15.7 34C17.9 33.9 17.9 33.9 19 32.8C19.3 31.9 19.5 30.9 19.7 30C17.8 27.6 16.9 27 14.3 28.3Z" fill="#1D1D1B"/></g></svg>
