<svg xmlns="http://www.w3.org/2000/svg" viewBox="0 0 103.2 102.4" width="103.2" height="102.4" role="img"><title>stickingPlaster</title><g data-role="accent"><path d="M59.6 29.2C62.3 31.6 62.3 31.6 65.2 34.3C65.9 35.2 66.7 36 67.6 36.8C70.3 39.9 71.8 41.3 72.6 42.6C73.5 43.9 73.7 44.9 74.3 46.7C72.9 48.5 71.3 50.1 69.8 51.7C68.4 53.1 66.8 54.5 65.1 56.3C63.5 58.1 61.8 60.1 60.1 61.7C58.3 63.2 56.6 64.9 55 66.7C54 67.7 53 68.7 52.1 70C50.5 71.9 49.7 72.7 48.8 73.1C47.9 73.6 46.9 73.7 44.9 73.9C43.4 72.9 42.1 71.8 41 70.8C39.8 69.7 38.8 68.4 37.5 66.9C36.4 65.8 35.3 64.9 34.2 64C32.1 62.6 30.9 61.8 30 60.9C29.3 59.9 28.8 58.7 27.9 56.4C28.8 54.5 29.5 53.1 30.6 51.9C31.7 50.7 33.1 49.7 34.7 48.5C34.9 48.1 35.1 47.7 35.2 47.2C35.6 47.3 36 47.3 36.4 47.3C36.7 46.3 37 45.3 37.3 44.4C41.3 40.4 44.4 37.4 47.1 35.1C49.5 32.7 51.1 31.2 52.2 30.4C53.2 29.6 54.2 29.1 55.5 28.8C56.7 28.6 58 28.8 59.6 29.2Z" fill="#FEE951"/></g><g data-role="ink"><path d="M93.9 3.6C95.7 5.6 97.3 7.7 98.7 9.6C100.3 11.5 101 14 101.4 16.6C101.3 18.6 101 20.7 100.4 22.8C100 25.5 99.1 28.1 98 30.5C97 32.8 95.8 34.7 94.8 36.4C93.3 38.1 91.5 40 89.8 41.8C88 43.5 86.6 45.2 85.4 46.9C83.9 48.8 83.9 48.8 82.5 51.1C83.2 51.9 84.1 52.7 85 53.4C86.7 54.7 88.5 56.4 90 58.1C91.3 59.9 92.2 61.7 93.1 63.3C94 64.7 95.2 66.3 96.4 67.8C98.3 69.8 99.8 71.3 100.7 72.6C101.5 74.4 102.2 76.2 102.6 78.1C103 80 103.2 82.4 103 85.2C102.5 86.9 101.7 88.5 100.6 90.2C99.7 92 98.7 93.5 97.2 94.5C95.7 95.6 94.2 96.5 92.3 97.5C89.6 98.8 87.4 99.6 85.2 100C83.6 100.4 81.7 100.3 79 99.8C76.5 99.1 74.1 98.3 72 97.3C70.2 96.1 68.4 94.7 66.7 93.4C65.1 92.1 63.5 90.8 61.7 89.4C60.1 88.1 58.4 86.6 56.6 85.5C54.7 84.2 53.1 82.7 51.8 81.2C50.8 82.1 49.9 83 49 83.8C47.9 84.7 46.7 85.6 45.6 86.5C42.4 89.9 39.7 92.6 37.7 94.5C35.3 95.9 33.1 97.1 31.5 98.2C29.8 99.5 28.3 100.4 26.9 100.9C25.6 101.4 24.3 101.6 22.9 101.7C21.4 101.8 19.7 101.9 17.4 102.4C15 102.3 13 101.6 11.4 100.5C9.9 99.6 8.8 98.5 7.7 97.1C6.3 95.8 4.8 94.2 3.6 92.4C2.9 90.6 2.3 88.8 1.9 86.7C1.5 84.8 1.4 83.2 1.6 81.5C1.9 79.6 2.4 77.6 3.2 75.3C4.1 73.3 5.2 71.5 6.3 70C7.5 68.3 8.3 66.4 9.3 64.7C10.6 63.2 12.3 61.7 13.7 60.2C15 58.7 16.2 57.1 17.3 55.5C18.3 54 19.1 52.6 20 51.3C19.5 50.7 18.9 50.2 18.4 49.6C17.3 48.5 16.3 47.2 15.3 45.9C14.3 44.5 13.2 43.1 12.2 41.9C11.1 40.8 10 39.6 8.9 38.4C6.9 36 5.1 34.3 3.8 32.3C2.7 30.2 1.9 28 1.5 25.3C0.9 22.7 0.5 20.3 0 17.1C0.3 15.2 0.8 13.7 1.8 12.3C3 10.9 4.3 9.6 5.8 8.2C7 6.7 8.3 5.3 9.6 3.9C11.4 2.9 13.2 2.4 15.1 2C16.9 1.6 18.7 1.3 20.8 1.4C23 1.6 25.1 2 27.2 2.8C29.1 4.3 30.9 6.1 32.8 7.7C35 9.4 36.9 10.6 39.2 11.8C41.4 13.1 43.3 14.7 45.6 16.1C49.3 18.7 49.3 18.7 52 20.4C52.4 19.8 52.9 19.1 53.4 18.5C54.9 17 56.6 15.4 58.2 14.1C59.5 12.8 61.1 11.4 62.7 10.2C63 9.9 63 9.9 64.5 8.7C66.4 6.7 68.4 5.1 70.8 3.9C73.2 2.5 75.3 1.5 77.6 0.9C80 0 82.6 0.1 85.4 0.8C88.3 1.3 91.1 2.2 93.9 3.6ZM64.2 13.1C62.9 14.1 61.6 15.2 60.3 16.2C58.5 17.8 56.4 19.8 54.7 21.3C53.3 22.9 51.8 24.5 50.3 26.1C48.9 27.6 47 29.6 45.1 31.4C43.7 32.7 42.9 33.3 42 34.1C41 34.8 39.9 35.6 38.1 36.9C37.1 37.8 36 38.9 34.9 40C34.1 40.6 33.4 41.4 32.7 42.3C31.6 43.8 30.5 45.1 29.5 46.3C28.6 47.4 27.5 48.5 26.3 49.5C25 50.7 23.8 51.9 22.3 53.1C18.8 57.1 16.3 60 14.1 62.6C11.5 64.9 9.8 66.7 9 68.7C7.8 70.6 6.8 72 6.2 73.3C5.6 74.7 5.3 76.1 5 77.7C4.6 79.5 4.5 81.4 4.2 83.3C4.5 86.1 5.3 88.8 6.4 90.8C7.4 93.1 9 95 10.9 96.9C12.9 98.2 14.8 99.1 16.5 99.3C18.3 99.5 20.2 99.3 22.4 99C24.8 98.2 27.5 97.1 29.7 95.9C31.9 94.7 34.4 93.5 36.8 92.1C38.7 90.4 40.5 88.2 42.1 85.9C44 84.2 46 82.3 47.8 80.7C48.5 80.1 49.2 79.5 49.8 78.7C51 77.6 52.2 76.5 53.5 75.1C54.7 73.6 56.1 72.1 57.6 70.7C58.9 69.5 60 68.2 61.2 67.1C62.4 66.2 63.4 65.3 64.4 64.2C65.7 62.8 66.9 61.5 68 60.2C69 59 70.2 57.8 71.4 56.5C72.5 55.5 73.5 54.7 74.5 54C75.7 53 76.9 52 78.3 50.9C79.7 49.7 81 48.4 82.2 47.1C82.8 46.4 83.4 45.7 83.9 45C86.7 41.7 89.3 38.9 91.6 36.5C93.4 34.3 94.4 32.4 95.5 30.5C96.6 28.7 97.3 27.2 97.9 25.6C98.4 24 98.5 22.6 98.4 21.2C98.3 19.7 98.4 18 98.6 15.9C98.1 14.1 97.3 12.5 96.3 11C95.4 9.6 94.1 8.5 92.8 7.4C91.7 6.1 90.3 5.1 88.5 4.1C85.4 2.9 82.7 2.6 80.4 2.8C78.2 3.1 76.2 3.9 74.4 5C72.5 6.2 70.7 7.1 69.3 8.2C67.8 9.7 66 11.4 64.2 13.1ZM6.7 10.5C5.1 12.5 4 14.2 3.4 16.1C3.1 18 3.2 20.1 3.2 22.3C3.7 24.9 4.6 27.1 5.6 29.1C6.5 31.2 8 33.1 9.7 34.3C11.5 36.1 13.1 38 14.7 40.1C15.9 41.8 17.1 43.3 18.4 44.9C19.5 46.6 20.6 48.2 21.9 49.5C23.5 49 24.6 48.3 25.5 47.5C26.4 46.7 27 45.6 27.9 44.4C29.4 42.6 30.8 40.6 32.4 38.8C33.4 37.9 34.4 37.1 35.4 36.3C36.2 35.4 37.1 34.6 38 33.8C39 33 40.1 32.1 41.2 31.2C42 30.5 42.7 29.8 43.5 29.1C44.3 28.3 45.2 27.5 46.2 26.7C48.1 24.8 48.1 24.8 49.7 23.7C49.7 23.3 49.7 22.9 49.7 22.5C48.2 20.9 46.3 19.4 44 18.1C43.1 17.5 42.1 16.9 41.1 16.4C38.7 14.9 36.2 13.5 34 12C32.1 10.2 29.9 8.4 27.8 6.8C26 5.6 23.6 4.7 20.7 4.4C18.2 4.2 15.9 4.6 13.6 5.6C11.4 6.6 9.3 8.1 6.7 10.5ZM79.1 52.8C77.6 54.1 76.3 55.4 75 56.6C73.2 58.2 71.4 60.1 69.8 62.2C68.2 64.3 66.3 66.2 64.7 68.1C62.8 69.5 60.9 71.3 58.9 73.1C57 74.9 55.2 76.8 53.6 78.5C54.6 80.4 56.1 82.5 58.1 84.2C60.1 85.7 62.4 87.4 64.8 88.8C66.8 90.3 68.9 91.6 71.3 93.1C73.5 94.6 75.7 95.8 77.9 96.8C80 97.3 82 97.5 84 97.1C85.8 96.9 87.5 96.6 89.3 96.1C92.1 94.7 94.1 93.5 95.8 91.9C97.3 90.2 98.4 88.2 99.7 85.6C100.3 83.4 100.5 81.4 100.3 79.5C100.2 77.9 99.8 76.3 98.9 74.4C97.4 72.6 95.6 71.2 94 69.8C92.4 67.9 90.7 65.8 89.5 63.9C88.5 62 87.2 60 85.7 58.1C84.7 57 83.5 56 82.4 55C81.7 54.2 81 53.4 80.4 52.7C80 52.7 79.6 52.8 79.1 52.8Z" fill="#1D1D1B"/></g></svg>
