<svg xmlns="http://www.w3.org/2000/svg" viewBox="0 0 102.2 104.2" width="102.2" height="104.2" role="img"><title>teethingRing</title><g data-role="accent"><path d="M84.1 11.1C86 11.9 87.3 12.5 88.5 13.2C89.6 14 90.3 15.2 91.3 16.9C92.1 18.9 92.7 20.3 92.6 22C92.3 23.8 91.8 25.5 91.2 27.7C90.3 30.3 88.9 32.1 87.4 33.5C85.7 35 83.4 36.2 80.8 37.5C79.9 38 78.9 38.6 78.1 39.2C76.5 39.7 75.2 40 73.9 39.9C72.6 39.8 71.2 39.3 69.6 38.5C67.8 36.8 66.7 35.5 65.8 33.7C64.8 32.1 64.1 30.5 63.7 27.8C64.3 25.7 65 24.3 66 23.1C67 22 68 21 69.3 19.7C69.9 19 70.5 18.2 71 17.3C73.1 14.4 74.5 12.7 76.1 11.8C78.1 10.8 80.6 10.8 84.1 11.1Z" fill="#FEE951"/></g><g data-role="ink"><path d="M53.4 0.3C56.7 2.1 56.7 2.1 58.3 4.3C59.6 5.9 61.1 6.9 62.5 7.7C63.8 8.7 65.5 9.3 67.8 10C70.3 10.8 72.4 11.7 74.3 13.2C73.8 14 73.3 14.7 72.6 15.4C71.2 14.9 69.8 14.4 68.1 13.5C64.9 11.9 64.9 11.9 61.7 10.9C60 10.3 59 9.6 58.2 8.8C57.4 8 56.7 6.9 55.8 5.4C52.2 3.6 52.2 3.6 48.6 4C46.9 5.3 46 6 45.1 6.9C44.3 7.8 43.6 8.6 42.2 10.4C39.9 11.6 37.8 12.6 35.7 13.3C34 14 32.6 14.7 31.2 15.5C29.7 16.2 28.3 17.1 27 18.1C25.8 18 24.5 18 23.2 17.9C19 17.7 19 17.7 15.3 20.6C13.4 24.1 13.4 24.1 14.1 27.7C14.6 29.8 14.6 31.5 14.4 33C14.2 34.5 13.5 36 12.3 38.1C11.7 39.7 11.4 41.3 11.2 43C10.6 45.4 10.1 46.7 9.2 47.8C8.2 48.8 7 49.8 5.1 51.4C4 53.9 4 53.9 3.6 57.4C4.6 59.9 5.2 61 7.7 61.9C10.6 63.3 11.3 65.2 12.5 68.5C13 70.2 13.6 71.7 14.3 73.1C14.9 74.3 15.5 75.2 16.3 76.3C17.3 78 17.7 79.3 17.8 80.7C18.1 82.3 18.2 84 18.4 86.1C20.9 89.8 20.9 89.8 23.6 91.8C24.8 91.7 26.1 91.4 27.4 91C29.7 90.3 31.2 90 32.6 90.1C34.3 90.3 35.9 91 37.8 92.3C38.9 92.9 40.1 93.6 41.6 94.2C43.7 95 44.9 95.7 46 96.5C47.1 97.3 48 98.2 49.3 99.7C52.5 100.9 53.7 100.7 57 100C59.5 97.2 59.5 97.2 61 94.3C62.9 93.3 64.7 92.5 66.7 91.9C68.3 91.3 69.9 90.7 71.4 89.9C73.1 89 74.5 87.9 75.7 86.9C76.8 86.9 77.9 86.9 78.9 86.7C80.8 86.5 82.4 86.5 83.9 86.2C85.4 85.9 86.6 85.2 87.8 84.1C88.2 82.8 88.3 81.3 88.2 79.7C88.1 78.2 87.8 76.7 87.4 75.1C87.8 74.5 88.2 73.8 88.6 73C89.5 71.2 90.1 69.4 90.7 67.5C91.6 65.5 92.3 63.5 92.9 61.3C94.3 57.5 94.3 57.5 96.4 55.8C98.3 53.7 98.5 52.5 98.8 49.1C97.8 46.7 97.1 45.6 94.8 44.4C93.3 43.4 92.4 42.1 92 40.5C91.5 38.8 91.1 37 90.5 35C90.2 34.7 90.2 34.7 89 32.7C89.1 31.9 89.2 31.1 89.3 30.3C89.9 30.2 90.4 30.2 90.9 30.1C92 31.5 93 32.9 93.7 34.4C94.1 35.9 94.4 37.3 94.9 38.8C96.4 41.8 97.2 42.3 99.8 43.5C101 44.9 101.5 46.3 101.7 47.7C102.1 49.3 102.2 51.1 102.1 53.1C101.7 54.6 101.2 55.6 100.5 56.5C99.7 57.4 98.6 58.3 97.1 59.7C96.3 62.1 95.6 64.5 94.9 66.8C94 68.9 94 68.9 92.3 72.7C91.8 74.6 91.6 75.8 91.7 76.9C91.7 78.1 92 79.5 92 81.5C91.7 83.6 91.2 85 90.3 86.3C89.3 87.4 88.1 88.3 86.4 89.3C85.3 89.7 85.3 89.7 82.1 89.2C79.7 89.4 77.9 89.8 76.3 90.5C74.8 91.2 73.3 92.1 71.3 93.4C70 94.2 68.5 95.2 67 95.9C65.5 96.5 64.1 96.9 62.6 97C62.2 98.1 61.8 99.1 61.4 100C59.8 101.5 58.6 102.8 57.1 103.7C55.4 104.2 53.6 104.1 51 104C49.3 103.4 48.2 102.7 47.2 101.9C46.1 101 45.1 99.9 43.8 98.4C41.7 97.5 41.7 97.5 39.2 96.3C37.7 95.6 36.4 95 34.9 94.5C33.4 94.2 31.9 93.9 30.5 93.4C29.6 93.7 28.7 94 27.8 94.3C26.1 94.6 24.9 94.6 23.7 94.4C22.3 94.2 21 93.8 19.5 93C18.4 91.2 17.4 89.9 16.4 88.5C15.4 87.1 14.8 85.4 14.1 82.8C13.9 81.4 13.8 80.1 13.9 78.8C13 77.4 12.1 76.2 11.2 74.8C10.3 72.8 9.3 70.6 8.4 68.4C6.6 65.1 6.6 65.1 4.9 64C2.2 62.5 1.4 61.3 0.2 58.7C0 56.5 0 54.6 0.6 53C1.2 51.4 2 49.9 3.5 48C4.5 47.3 5.5 46.6 6.5 45.9C6.9 43.8 7.4 41.6 7.8 39.6C8.2 38.1 8.8 36.7 9.6 35.2C10.4 33.8 11 32.5 11.4 31.3C11.5 29.8 11.5 29.8 10.7 28.4C10.4 26.5 10.3 24.8 10.6 23.1C10.8 21.2 11.5 19.5 12.8 17.9C14.4 16.3 15.4 15.4 16.6 14.7C17.9 14.1 19.2 13.8 21.1 13.6C22.4 13.9 23.6 14.2 25 14.4C26.5 13.6 28.2 12.9 29.9 12C32.3 11.1 34.4 10.4 37 9.3C38.9 8.6 40.2 7.9 41.5 6.7C42.8 5.5 43.9 4.1 45 2.3C46.5 1.2 47.9 0.6 49.4 0.3C50.6 0 51.7 0.1 53.4 0.3Z" fill="#1D1D1B"/><path d="M59.6 17.9C61 18.4 62.5 19.1 63.9 19.7C65.3 20.3 66.5 21 67.6 21.7C67.2 22.3 66.8 23 66.3 23.7C63.8 23.2 61.5 22.6 59 21.6C58.4 22.2 58 22.8 57.5 23.4C56.2 25 54.7 25.7 53.2 26C51.8 26.3 50.2 26.3 48.3 26.3C46.1 24.7 46.1 24.7 44.2 22.9C42.4 22.4 42.4 22.4 39.6 24C38.6 24.5 37.6 25 36.5 25.6C36.1 25.6 35.7 25.6 35.3 25.5C35.4 26.7 35.5 27.9 35.6 29.1C34.9 31 34.3 32.3 33.5 33.5C32.6 34.7 31.6 35.7 30.4 37.1C28.2 38.1 26 38.4 23 38.9C22 40.4 21.4 41.5 21.3 42.6C21.1 43.6 21.1 44.8 21.2 46.5C21.9 47.5 22.6 48.6 23.6 49.7C24.4 51.8 24.9 53.5 24.9 55.2C24.8 56.8 24.5 58.4 23.7 60.2C22.5 62 22.5 62 21.4 62.8C21.5 64.3 21.7 65.5 22 66.7C22.5 67.8 23.2 68.9 24.2 70.2C27.3 70.9 27.3 70.9 30.9 70.7C34.4 73.2 34.4 73.2 37.1 76C37.4 76.7 37.6 77.5 37.8 78.4C38.6 80.8 38.6 80.8 40.8 82.5C43.3 83 43.3 83 45.6 82.3C46.7 81.3 47.7 80.4 48.9 79.5C51.2 78.8 53.1 79.2 55.8 79.3C58.3 80.9 58.3 80.9 60.4 82.3C61.9 82.8 61.9 82.8 64.3 81.8C64.8 81.5 64.8 81.5 67.4 79.7C68.4 76.6 68.4 76.6 68.8 73.3C70.5 70.5 71.4 69.2 72.3 68.6C73.1 68 73.9 67.9 75.5 67.4C76.9 67.5 78.4 67.6 80 67.8C80.3 66.2 80.5 64.8 80.6 63.6C80.8 62.3 81.1 60.9 81.5 59.2C79.9 57.2 79.9 57.2 78.2 55.5C77.9 53.1 78.4 51 78.9 48.4C80.2 45.9 80.2 45.9 81.5 44C81.8 42.3 81.8 42.3 80.4 39.3C80.5 38.3 80.6 37.3 80.8 36.3C81.1 36.5 81.1 36.5 83.1 36.9C84.7 40.8 84.7 40.8 84.9 44.7C84.2 45.7 83.6 46.8 82.9 47.9C82.3 49.5 82.3 49.5 81.2 53.2C82.7 55.4 82.7 55.4 85.1 57.3C85.3 59.8 85 62.1 84.2 64.7C83.6 66.9 83 68.8 81.8 70.8C80.1 70.8 78.2 70.8 76.4 70.8C73.1 72.5 73.1 72.5 71.8 74.7C71.7 75.8 71.6 76.8 71.5 77.8C71.1 80.3 71.1 80.3 68.3 82.9C66.4 84 65.2 84.7 63.9 85.1C62.7 85.6 61.4 85.9 59.3 85.9C58.2 85 57.2 84.2 56.3 83.3C54.7 82.7 54.7 82.7 51.2 82.5C48.4 84.4 48.4 84.4 45.9 86.7C43.9 86.5 42.5 86.4 41.2 86.1C39.8 85.6 38.4 84.8 36.8 83.9C35.4 81.8 35.4 81.8 34.8 79.5C33.9 77.1 33.9 77.1 31.2 74.8C28.5 74.6 26.2 74.2 23.5 74C22 72.5 20.8 71.2 19.9 69.8C19.1 68.1 18.5 66.3 18.1 64.3C18.5 61.2 18.5 61.2 19.6 59.7C21.3 57.5 21.3 55.7 21 52.1C19.1 48.9 19.1 48.9 18.1 48C18 46.2 18.1 44.5 18.2 42.9C18.2 41.4 18.6 39.9 19.4 38.4C22 35.1 22 35.1 24.7 34.7C25.7 34.7 26.6 34.7 27.6 34.6C31 32.1 31 32.1 31.7 31.1C31.7 30.6 31.7 30.6 32 27.9C32.2 24.5 32.2 24.5 35.4 21.8C37.1 21 38.2 20.4 39.5 19.9C40.9 19.2 42.7 18.8 44.7 18.7C45.3 19.1 45.3 19.1 47.9 21.8C49.4 22.5 49.4 22.5 52.7 22.4C59 17.9 59 17.9 59.6 17.9Z" fill="#1D1D1B"/></g></svg>
